HIERARCHY
ROOT Root
{
  OFFSET 0.0 0.0 0.0
  CHANNELS 6 Xposition Yposition Zposition Zrotation Yrotation Xrotation
  JOINT Hips
  {
    OFFSET 0.0 100.0 0.0
    CHANNELS 6 Xposition Yposition Zposition Zrotation Yrotation Xrotation
    JOINT Spine1
    {
      OFFSET 5.003913 -0.037094 -0.013727
      CHANNELS 3 Zrotation Yrotation Xrotation
      JOINT Spine2
      {
        OFFSET 7.125363 -1e-06 0.0
        CHANNELS 3 Zrotation Yrotation Xrotation
        JOINT Chest
        {
          OFFSET 7.594027 1e-06 0.0
          CHANNELS 3 Zrotation Yrotation Xrotation
          JOINT Neck1
          {
            OFFSET 26.313086 -0.460272 -0.181672
            CHANNELS 3 Zrotation Yrotation Xrotation
            JOINT Neck2
            {
              OFFSET 8.04591 0.0 0.0
              CHANNELS 3 Zrotation Yrotation Xrotation
              JOINT Head
              {
                OFFSET 6.432777 0.0 0.0
                CHANNELS 3 Zrotation Yrotation Xrotation
                JOINT HeadEnd
                {
                  OFFSET 16.169769 0.06451 0.00362
                  CHANNELS 3 Zrotation Yrotation Xrotation
                }
                JOINT Jaw
                {
                  OFFSET 0.108738 3.12938 0.002639
                  CHANNELS 3 Zrotation Yrotation Xrotation
                }
                JOINT LeftEye
                {
                  OFFSET 4.451729 8.166359 3.206392
                  CHANNELS 3 Zrotation Yrotation Xrotation
                }
                JOINT RightEye
                {
                  OFFSET 4.43689 8.135758 -3.222429
                  CHANNELS 3 Zrotation Yrotation Xrotation
                }
              }
            }
          }
          JOINT LeftShoulder
          {
            OFFSET 23.218927 5.195579 1.621656
            CHANNELS 3 Zrotation Yrotation Xrotation
            JOINT LeftArm
            {
              OFFSET 15.902122 2e-06 -2e-06
              CHANNELS 3 Zrotation Yrotation Xrotation
              JOINT LeftForeArm
              {
                OFFSET 28.739304 0.0 -1e-06
                CHANNELS 3 Zrotation Yrotation Xrotation
                JOINT LeftHand
                {
                  OFFSET 27.093979 -4e-06 0.0
                  CHANNELS 3 Zrotation Yrotation Xrotation
                  JOINT LeftHandThumb1
                  {
                    OFFSET 2.276787 3.380274 0.83384
                    CHANNELS 3 Zrotation Yrotation Xrotation
                    JOINT LeftHandThumb2
                    {
                      OFFSET 4.705307 -2e-06 -1e-06
                      CHANNELS 3 Zrotation Yrotation Xrotation
                      JOINT LeftHandThumb3
                      {
                        OFFSET 2.798515 0.0 3e-06
                        CHANNELS 3 Zrotation Yrotation Xrotation
                        JOINT LeftHandThumbEnd
                        {
                          OFFSET 3.180786 5e-06 -4e-06
                          CHANNELS 3 Zrotation Yrotation Xrotation
                        }
                      }
                    }
                  }
                  JOINT LeftHandIndex1
                  {
                    OFFSET 3.24778 2.352677 0.137192
                    CHANNELS 3 Zrotation Yrotation Xrotation
                    JOINT LeftHandIndex2
                    {
                      OFFSET 6.367104 1e-06 0.0
                      CHANNELS 3 Zrotation Yrotation Xrotation
                      JOINT LeftHandIndex3
                      {
                        OFFSET 3.662361 0.0 0.0
                        CHANNELS 3 Zrotation Yrotation Xrotation
                        JOINT LeftHandIndex4
                        {
                          OFFSET 2.329239 4e-06 -4e-06
                          CHANNELS 3 Zrotation Yrotation Xrotation
                          JOINT LeftHandIndexEnd
                          {
                            OFFSET 2.767822 0.0 0.0
                            CHANNELS 3 Zrotation Yrotation Xrotation
                          }
                        }
                      }
                    }
                  }
                  JOINT LeftHandMiddle1
                  {
                    OFFSET 3.163612 0.945023 -0.406112
                    CHANNELS 3 Zrotation Yrotation Xrotation
                    JOINT LeftHandMiddle2
                    {
                      OFFSET 6.276794 3e-06 0.0
                      CHANNELS 3 Zrotation Yrotation Xrotation
                      JOINT LeftHandMiddle3
                      {
                        OFFSET 4.356522 -1e-06 4e-06
                        CHANNELS 3 Zrotation Yrotation Xrotation
                        JOINT LeftHandMiddle4
                        {
                          OFFSET 2.996872 0.0 8e-06
                          CHANNELS 3 Zrotation Yrotation Xrotation
                          JOINT LeftHandMiddleEnd
                          {
                            OFFSET 2.323257 3e-06 -4e-06
                            CHANNELS 3 Zrotation Yrotation Xrotation
                          }
                        }
                      }
                    }
                  }
                  JOINT LeftHandRing1
                  {
                    OFFSET 2.882607 -0.309162 0.107445
                    CHANNELS 3 Zrotation Yrotation Xrotation
                    JOINT LeftHandRing2
                    {
                      OFFSET 6.033195 0.0 4e-06
                      CHANNELS 3 Zrotation Yrotation Xrotation
                      JOINT LeftHandRing3
                      {
                        OFFSET 4.350578 3e-06 0.0
                        CHANNELS 3 Zrotation Yrotation Xrotation
                        JOINT LeftHandRing4
                        {
                          OFFSET 2.651321 1e-06 -7e-06
                          CHANNELS 3 Zrotation Yrotation Xrotation
                          JOINT LeftHandRingEnd
                          {
                            OFFSET 1.937668 1e-06 -4e-06
                            CHANNELS 3 Zrotation Yrotation Xrotation
                          }
                        }
                      }
                    }
                  }
                  JOINT LeftHandPinky1
                  {
                    OFFSET 2.865311 -1.525436 0.575687
                    CHANNELS 3 Zrotation Yrotation Xrotation
                    JOINT LeftHandPinky2
                    {
                      OFFSET 5.549362 1e-06 -8e-06
                      CHANNELS 3 Zrotation Yrotation Xrotation
                      JOINT LeftHandPinky3
                      {
                        OFFSET 3.070969 0.0 -4e-06
                        CHANNELS 3 Zrotation Yrotation Xrotation
                        JOINT LeftHandPinky4
                        {
                          OFFSET 1.549675 1e-06 0.0
                          CHANNELS 3 Zrotation Yrotation Xrotation
                          JOINT LeftHandPinkyEnd
                          {
                            OFFSET 1.952118 0.0 0.0
                            CHANNELS 3 Zrotation Yrotation Xrotation
                          }
                        }
                      }
                    }
                  }
                }
              }
            }
          }
          JOINT RightShoulder
          {
            OFFSET 23.161718 5.296122 -1.380114
            CHANNELS 3 Zrotation Yrotation Xrotation
            JOINT RightArm
            {
              OFFSET -16.027195 -2e-06 1.1e-05
              CHANNELS 3 Zrotation Yrotation Xrotation
              JOINT RightForeArm
              {
                OFFSET -28.736641 4e-06 2e-06
                CHANNELS 3 Zrotation Yrotation Xrotation
                JOINT RightHand
                {
                  OFFSET -27.133617 6e-06 0.0
                  CHANNELS 3 Zrotation Yrotation Xrotation
                  JOINT RightHandThumb1
                  {
                    OFFSET -2.274328 -3.351035 -0.83067
                    CHANNELS 3 Zrotation Yrotation Xrotation
                    JOINT RightHandThumb2
                    {
                      OFFSET -4.703592 -3e-06 2e-06
                      CHANNELS 3 Zrotation Yrotation Xrotation
                      JOINT RightHandThumb3
                      {
                        OFFSET -2.794937 -4e-06 -3e-06
                        CHANNELS 3 Zrotation Yrotation Xrotation
                        JOINT RightHandThumbEnd
                        {
                          OFFSET -3.183853 4e-06 1e-06
                          CHANNELS 3 Zrotation Yrotation Xrotation
                        }
                      }
                    }
                  }
                  JOINT RightHandIndex1
                  {
                    OFFSET -3.253498 -2.33755 -0.127667
                    CHANNELS 3 Zrotation Yrotation Xrotation
                    JOINT RightHandIndex2
                    {
                      OFFSET -6.344433 0.0 0.0
                      CHANNELS 3 Zrotation Yrotation Xrotation
                      JOINT RightHandIndex3
                      {
                        OFFSET -3.654869 0.0 -8e-06
                        CHANNELS 3 Zrotation Yrotation Xrotation
                        JOINT RightHandIndex4
                        {
                          OFFSET -2.327587 -1e-06 0.0
                          CHANNELS 3 Zrotation Yrotation Xrotation
                          JOINT RightHandIndexEnd
                          {
                            OFFSET -2.770004 3e-06 8e-06
                            CHANNELS 3 Zrotation Yrotation Xrotation
                          }
                        }
                      }
                    }
                  }
                  JOINT RightHandMiddle1
                  {
                    OFFSET -3.168224 -0.944764 0.411762
                    CHANNELS 3 Zrotation Yrotation Xrotation
                    JOINT RightHandMiddle2
                    {
                      OFFSET -6.266689 -1e-06 -4e-06
                      CHANNELS 3 Zrotation Yrotation Xrotation
                      JOINT RightHandMiddle3
                      {
                        OFFSET -4.348904 0.0 0.0
                        CHANNELS 3 Zrotation Yrotation Xrotation
                        JOINT RightHandMiddle4
                        {
                          OFFSET -3.000237 2e-06 -4e-06
                          CHANNELS 3 Zrotation Yrotation Xrotation
                          JOINT RightHandMiddleEnd
                          {
                            OFFSET -2.32148 -4e-06 -4e-06
                            CHANNELS 3 Zrotation Yrotation Xrotation
                          }
                        }
                      }
                    }
                  }
                  JOINT RightHandRing1
                  {
                    OFFSET -2.885654 0.293261 -0.119232
                    CHANNELS 3 Zrotation Yrotation Xrotation
                    JOINT RightHandRing2
                    {
                      OFFSET -6.032833 -1e-06 -4e-06
                      CHANNELS 3 Zrotation Yrotation Xrotation
                      JOINT RightHandRing3
                      {
                        OFFSET -4.33881 0.0 -4e-06
                        CHANNELS 3 Zrotation Yrotation Xrotation
                        JOINT RightHandRing4
                        {
                          OFFSET -2.654903 -4e-06 -4e-06
                          CHANNELS 3 Zrotation Yrotation Xrotation
                          JOINT RightHandRingEnd
                          {
                            OFFSET -1.935123 0.0 4e-06
                            CHANNELS 3 Zrotation Yrotation Xrotation
                          }
                        }
                      }
                    }
                  }
                  JOINT RightHandPinky1
                  {
                    OFFSET -2.866241 1.503903 -0.60527
                    CHANNELS 3 Zrotation Yrotation Xrotation
                    JOINT RightHandPinky2
                    {
                      OFFSET -5.553177 -1e-06 0.0
                      CHANNELS 3 Zrotation Yrotation Xrotation
                      JOINT RightHandPinky3
                      {
                        OFFSET -3.062664 -1e-06 -4e-06
                        CHANNELS 3 Zrotation Yrotation Xrotation
                        JOINT RightHandPinky4
                        {
                          OFFSET -1.546532 2e-06 4e-06
                          CHANNELS 3 Zrotation Yrotation Xrotation
                          JOINT RightHandPinkyEnd
                          {
                            OFFSET -1.952339 0.0 -4e-06
                            CHANNELS 3 Zrotation Yrotation Xrotation
                          }
                        }
                      }
                    }
                  }
                }
              }
            }
          }
        }
      }
    }
    JOINT LeftLeg
    {
      OFFSET -8.443107 2.567604 10.043214
      CHANNELS 3 Zrotation Yrotation Xrotation
      JOINT LeftShin
      {
        OFFSET 43.229202 1e-06 -1e-06
        CHANNELS 3 Zrotation Yrotation Xrotation
        JOINT LeftFoot
        {
          OFFSET 42.298607 1e-06 1e-06
          CHANNELS 3 Zrotation Yrotation Xrotation
          JOINT LeftToeBase
          {
            OFFSET 14.165863 1e-06 0.0
            CHANNELS 3 Zrotation Yrotation Xrotation
            JOINT LeftToeEnd
            {
              OFFSET 6.714096 -0.234461 0.0
              CHANNELS 3 Zrotation Yrotation Xrotation
            }
          }
        }
      }
    }
    JOINT RightLeg
    {
      OFFSET -8.303924 2.592729 -10.047277
      CHANNELS 3 Zrotation Yrotation Xrotation
      JOINT RightShin
      {
        OFFSET -43.369686 0.0 0.0
        CHANNELS 3 Zrotation Yrotation Xrotation
        JOINT RightFoot
        {
          OFFSET -42.260784 4e-06 3e-06
          CHANNELS 3 Zrotation Yrotation Xrotation
          JOINT RightToeBase
          {
            OFFSET -14.222237 -2e-06 -2e-06
            CHANNELS 3 Zrotation Yrotation Xrotation
            JOINT RightToeEnd
            {
              OFFSET -6.660072 0.232574 -1e-06
              CHANNELS 3 Zrotation Yrotation Xrotation
            }
          }
        }
      }
    }
  }
}
MOTION
Frames: 4
Frame Time: 0.03333333333333333
0.0 0.0 0.0 0.0 -0.0 0.0 -1.478162 100.210617 0.462913 91.601646 -3.031705 101.438843 -2.116505 0.498086 0.795766 -11.417491 0.307531 2.891695 15.688269 -2.639245 -0.016146 11.051337 5.945384 2.063843 -2.394285 -1.007413 -10.828828 -39.971092 -5.595276 -13.183881 7e-06 1e-06 1e-06 0.085671 0.044386 0.108568 0.096885 -0.070345 0.064563 0.11693 0.148621 0.125574 -117.723091 -68.826508 131.706711 36.931362 -60.241032 4.147864 22.367428 -0.045546 -0.088003 -3.463505 5.987543 3.666362 17.636749 -26.322786 52.411251 -19.466845 -14.395684 29.410522 7e-06 -8.77492 -6e-06 16.164854 -18.012865 6.008929 -0.609777 -1.795668 -3.889338 -4.80714 -11.046921 -2.937862 -7e-06 -20.976282 -1.7e-05 -5.020046 -25.033991 -4.031953 5e-06 3e-06 0.0 -10.634608 -5.687021 -3.565584 10.573359 -17.92312 -3.113936 -1e-06 -13.821386 -1.8e-05 -0.501763 -31.182089 -4.027126 -11.408795 -59.886196 7.257463 -13.98281 -7.150258 -2.875031 13.772841 -8.401556 -3.218268 0.347739 -34.212009 0.771609 -0.963021 -17.733652 2.621021 -0.0 0.0 0.0 -17.346567 -20.095381 -4.201759 21.757751 -1.638369 3.866454 -2e-06 -6.3389 -1.2e-05 -1.697611 -22.592131 -6.194126 0.0 -3e-06 -1e-06 23.163454 -82.00029 169.528625 63.749489 13.923814 -47.107838 70.530479 2.410027 3.937639 13.164331 44.166237 58.789829 22.182293 -20.376028 49.933395 -16.70192 -16.743616 28.476614 -4e-06 -12.690706 -9e-06 17.295774 -17.396233 2.854473 -0.10592 -1.513864 -4.275893 -5.039073 -5.612915 -2.953556 6e-06 -11.020646 1.5e-05 -6.111366 -15.895551 -3.840469 1e-06 3e-06 1e-06 -10.283428 -5.680319 -4.341845 11.028369 -11.30251 -2.372628 -1.384288 -14.238737 -6.320139 -0.625475 -26.92461 -3.827588 -5.199191 -51.778061 -3.128266 -13.7086 -7.363516 -3.720941 18.141275 -14.052872 -3.242672 6e-06 -18.7875 1.2e-05 -0.429711 -8.456174 2.555536 -1e-06 2e-06 1e-06 -15.923635 -20.094614 -5.473571 30.419409 -7.1909 1.735955 9e-06 -8.163022 -4e-06 -1.861909 -22.86183 -6.168005 -1e-06 -3e-06 -1e-06 176.966995 -2.515169 9.560236 5.385668 -0.103437 0.107267 -75.721535 7.446686 -4.338651 -4.647391 1.65181 2.146833 -0.999998 0.0 1e-06 1.249778 -3.286114 -13.776433 5.569684 -0.043791 0.281115 -78.491814 -4.09167 -5.249446 -4.796749 0.578376 1.633222 -1.000001 1e-06 -1e-06 
0.0 0.0 0.0 0.0 -0.0 0.0 -1.414591 100.221786 0.405241 91.555176 -2.988494 101.269493 -2.115007 0.602772 0.750138 -11.515334 0.324419 2.974515 15.694064 -2.681207 -0.081038 11.203112 6.157284 1.960057 -2.449525 -1.097018 -10.569979 -40.189289 -5.622014 -13.041383 8e-06 0.0 1e-06 0.060285 0.044058 0.08519 0.126208 -0.059655 0.0537 0.129495 0.13767 0.087575 -117.542915 -68.751854 131.583054 37.241585 -60.332134 4.018352 22.288765 0.018455 -0.102919 -3.253357 5.941953 3.467736 17.636585 -26.322672 52.411079 -19.4666 -14.395539 29.410313 -1e-06 -8.77479 -5e-06 16.123423 -18.045916 5.952876 -0.609777 -1.79565 -3.889319 -4.807073 -11.046787 -2.937845 6e-06 -20.975975 0.0 -5.019939 -25.033524 -4.031876 6e-06 2e-06 -1e-06 -10.634503 -5.686962 -3.565582 10.573234 -17.922913 -3.113887 3e-06 -13.821184 2e-06 -0.501765 -31.18148 -4.027004 -11.266697 -59.826591 7.260266 -13.982677 -7.150187 -2.875038 13.77268 -8.401474 -3.21823 0.347734 -34.211502 0.771655 -0.963026 -17.73337 2.621024 0.0 -1e-06 0.0 -17.346369 -20.095182 -4.201774 21.757484 -1.63837 3.86642 1e-06 -6.338815 -0.0 -1.697568 -22.591738 -6.194007 0.0 -4e-06 -2e-06 21.932384 -82.078857 171.060181 64.080803 13.681738 -47.278881 71.753853 2.940063 4.430473 16.787649 43.07309 63.62516 22.182205 -20.375898 49.933289 -16.701859 -16.743572 28.476536 -1.5e-05 -12.690659 -9e-06 16.955845 -17.268009 3.170723 -0.105919 -1.513856 -4.275879 -5.039056 -5.612876 -2.953556 1.8e-05 -11.020562 -3e-06 -6.111315 -15.895412 -3.84049 1e-06 1e-06 -1e-06 -10.283395 -5.680285 -4.341835 11.028338 -11.302424 -2.372633 -1.384263 -14.238615 -6.320132 -0.625403 -26.924334 -3.8276 -5.087407 -51.469997 -3.221323 -13.708557 -7.363472 -3.720939 18.141224 -14.052775 -3.242672 2.9e-05 -18.787334 5e-06 -0.4297 -8.4561 2.555529 -0.0 -0.0 -0.0 -15.923571 -20.094482 -5.473582 30.419313 -7.190874 1.735945 1.3e-05 -8.162952 3e-06 -1.861878 -22.861597 -6.167966 -1e-06 -2e-06 -2e-06 176.928146 -2.515409 9.472463 5.492639 -0.112415 0.081071 -75.752113 7.311995 -4.243032 -4.606215 1.592235 2.139792 -0.999999 -0.0 0.0 1.220493 -3.24885 -13.475904 5.594376 -0.069764 0.188235 -78.431541 -4.131687 -5.314432 -4.917752 0.567423 1.626535 -1.000003 0.0 -0.0 
0.0 0.0 0.0 0.0 -0.0 0.0 -1.408736 100.254166 0.323373 91.519218 -2.950311 101.241829 -2.152077 0.655037 0.747441 -11.507371 0.349799 3.064535 15.642241 -2.686077 0.019869 11.286894 5.975779 1.922848 -2.453917 -1.126992 -10.520725 -40.276062 -5.516126 -12.969873 7e-06 -0.0 0.0 0.022923 0.023251 0.036207 0.11535 -0.103506 0.013265 0.125031 0.139386 0.026855 -117.968681 -68.813637 132.27092 37.699619 -60.229504 3.159442 22.654257 0.032818 -0.116033 -3.013254 6.335039 4.056783 17.636658 -26.322817 52.411411 -19.466616 -14.395623 29.410463 1.2e-05 -8.774847 -9e-06 15.955348 -17.945425 6.037023 -0.609782 -1.795648 -3.889336 -4.807111 -11.046804 -2.937855 -1.9e-05 -20.976025 1.7e-05 -5.020008 -25.033617 -4.031917 6e-06 1e-06 -0.0 -10.634553 -5.686972 -3.565601 10.573269 -17.922928 -3.113884 -1.5e-05 -13.821219 1.6e-05 -0.50182 -31.181604 -4.02702 -11.211888 -59.773247 7.243354 -13.982737 -7.150202 -2.875059 13.772742 -8.401472 -3.218232 0.347674 -34.21159 0.771715 -0.96307 -17.733437 2.621062 1e-06 0.0 -0.0 -17.346458 -20.095211 -4.2018 21.757599 -1.63836 3.866458 -5e-06 -6.338828 1e-05 -1.697625 -22.59181 -6.194031 0.0 -3e-06 -3e-06 23.500757 -82.783272 169.153046 65.066322 11.227733 -52.000137 73.425713 3.413457 4.654354 17.929714 51.386295 64.216621 22.182096 -20.37594 49.933521 -16.701889 -16.743498 28.476679 -1.1e-05 -12.690603 4e-06 15.991286 -17.397936 4.006302 -0.105922 -1.513864 -4.275894 -5.039039 -5.612899 -2.95358 1e-05 -11.020595 -2e-05 -6.111279 -15.895486 -3.840533 1e-06 -1e-06 -1e-06 -10.283362 -5.680308 -4.341861 11.028289 -11.302452 -2.372652 -1.384249 -14.238672 -6.320184 -0.625377 -26.924448 -3.827703 -4.943947 -50.567066 -3.250841 -13.708513 -7.363503 -3.720965 18.141146 -14.052802 -3.242702 2.5e-05 -18.78738 -3.2e-05 -0.429708 -8.45611 2.555514 2e-06 5e-06 -1e-06 -15.923512 -20.094551 -5.473628 30.41918 -7.190845 1.73591 6e-06 -8.162964 -1e-05 -1.861839 -22.861649 -6.168034 0.0 -1e-06 -3e-06 176.894974 -2.5515 9.573892 5.502089 -0.078295 0.132732 -75.752419 7.113431 -4.164378 -4.540164 1.497448 2.130556 -0.999994 -0.0 -0.0 1.209133 -3.2318 -13.346498 5.648063 -0.066624 0.140328 -78.471741 -4.133132 -5.444299 -4.716569 0.527834 1.625221 -1.0 -0.0 -0.0 
0.0 0.0 0.0 0.0 -0.0 0.0 -1.379898 100.25489 0.269553 91.56945 -2.904164 101.2472 -2.226674 0.588876 0.837169 -11.438883 0.349734 3.02993 15.562473 -2.651061 0.361444 11.247921 5.513338 1.970045 -2.525398 -1.139356 -10.664434 -39.76479 -5.170895 -12.957694 7e-06 -0.0 1e-06 0.014708 -0.015338 -0.010888 0.117006 -0.177905 -0.032806 0.140414 0.136394 -0.019555 -118.771103 -68.828743 133.418274 38.359646 -59.748684 1.851497 22.945824 -0.290161 -0.152814 -2.60574 7.052465 4.544411 17.636621 -26.322737 52.411182 -19.4667 -14.395638 29.410437 -4e-06 -8.774852 2e-06 15.810206 -17.856745 6.136194 -0.609775 -1.795653 -3.889328 -4.807095 -11.046821 -2.937852 1.2e-05 -20.97607 -1e-06 -5.019983 -25.033669 -4.031904 5e-06 -1e-06 -0.0 -10.634537 -5.686972 -3.565583 10.573296 -17.922972 -3.113911 6e-06 -13.821246 1e-06 -0.501763 -31.181675 -4.027032 -11.2592 -59.619778 7.126436 -13.982723 -7.150198 -2.875034 13.772759 -8.401501 -3.218254 0.347745 -34.211662 0.771656 -0.963028 -17.733473 2.62104 0.0 -0.0 1e-06 -17.346432 -20.095221 -4.201771 21.757601 -1.63838 3.866423 4e-06 -6.338842 1e-06 -1.697585 -22.591871 -6.194045 -1e-06 -2e-06 -2e-06 26.761347 -83.384109 165.33168 66.386414 8.464606 -57.278019 74.296326 3.678653 4.990315 13.560362 63.812874 55.031929 22.182148 -20.375914 49.933315 -16.701832 -16.743521 28.476545 -7e-06 -12.690619 -8e-06 15.739104 -16.848263 4.268117 -0.105921 -1.513858 -4.275882 -5.039045 -5.612885 -2.953561 9e-06 -11.020576 -0.0 -6.111305 -15.895451 -3.840489 2e-06 1e-06 1e-06 -10.283374 -5.680292 -4.341843 11.028302 -11.302433 -2.372628 -1.384267 -14.238637 -6.320136 -0.625434 -26.924385 -3.827613 -4.622928 -49.440536 -3.145768 -13.708527 -7.363481 -3.720942 18.141163 -14.052778 -3.242669 1.6e-05 -18.787354 1e-06 -0.42971 -8.456102 2.555518 2e-06 2e-06 -3e-06 -15.923545 -20.094501 -5.473588 30.419231 -7.190851 1.735935 9e-06 -8.162959 -4e-06 -1.861881 -22.861641 -6.167982 3e-06 1e-06 2e-06 176.948212 -2.516154 9.690174 5.459876 -0.064108 0.187603 -75.693275 7.157073 -4.226153 -4.736339 1.474673 2.123388 -0.999998 -0.0 -1e-06 1.234877 -3.34175 -13.514256 5.65338 -0.022258 0.195928 -78.38781 -3.949759 -5.595891 -4.701388 0.502429 1.621392 -1.000002 0.0 0.0 
